<svg width="137" height="24" viewBox="0 0 137 24" fill="none" xmlns="http://www.w3.org/2000/svg">
<path d="M0.606 12.104V2.644H3.708V12.104C3.708 13.16 3.972 13.9593 4.5 14.502C5.04267 15.0447 5.81267 15.316 6.81 15.316C7.80733 15.316 8.57733 15.0447 9.12 14.502C9.66267 13.9593 9.934 13.16 9.934 12.104V2.644H13.014V12.104C13.014 14.04 12.4053 15.536 11.188 16.592C9.97067 17.6333 8.48933 18.154 6.744 18.154C4.99867 18.154 3.53933 17.6333 2.366 16.592C1.19267 15.5507 0.606 14.0547 0.606 12.104ZM24.8057 14.524C25.451 13.8787 25.7737 12.9987 25.7737 11.884C25.7737 10.7693 25.451 9.89667 24.8057 9.266C24.175 8.63533 23.427 8.32 22.5617 8.32C21.6963 8.32 20.941 8.64267 20.2957 9.288C19.665 9.91867 19.3497 10.7913 19.3497 11.906C19.3497 13.0207 19.665 13.9007 20.2957 14.546C20.941 15.1767 21.6963 15.492 22.5617 15.492C23.427 15.492 24.175 15.1693 24.8057 14.524ZM19.3497 7.704C20.215 6.32533 21.4837 5.636 23.1557 5.636C24.8277 5.636 26.2063 6.22267 27.2917 7.396C28.377 8.55467 28.9197 10.058 28.9197 11.906C28.9197 13.7393 28.377 15.2427 27.2917 16.416C26.2063 17.5893 24.835 18.176 23.1777 18.176C21.535 18.176 20.259 17.4353 19.3497 15.954V23.808H16.2477V5.812H19.3497V7.704ZM31.3512 18V1.72H34.4532V18H31.3512ZM43.1655 15.558C44.0308 15.558 44.7715 15.2427 45.3875 14.612C46.0182 13.9667 46.3335 13.0647 46.3335 11.906C46.3335 10.7327 46.0255 9.83067 45.4095 9.2C44.7935 8.56933 44.0455 8.254 43.1655 8.254C42.3002 8.254 41.5668 8.56933 40.9655 9.2C40.3642 9.83067 40.0635 10.7327 40.0635 11.906C40.0635 13.0793 40.3642 13.9813 40.9655 14.612C41.5668 15.2427 42.3002 15.558 43.1655 15.558ZM38.6995 16.438C37.5115 15.2793 36.9175 13.7613 36.9175 11.884C36.9175 10.0067 37.5188 8.496 38.7215 7.352C39.9242 6.208 41.4128 5.636 43.1875 5.636C44.9768 5.636 46.4728 6.208 47.6755 7.352C48.8782 8.496 49.4795 10.0067 49.4795 11.884C49.4795 13.7613 48.8708 15.2793 47.6535 16.438C46.4508 17.5967 44.9548 18.176 43.1655 18.176C41.3762 18.176 39.8875 17.5967 38.6995 16.438ZM59.6992 14.546C60.3445 13.9007 60.6672 13.0207 60.6672 11.906C60.6672 10.7913 60.3445 9.91867 59.6992 9.288C59.0539 8.64267 58.2985 8.32 57.4332 8.32C56.5679 8.32 55.8125 8.63533 55.1672 9.266C54.5365 9.89667 54.2212 10.7693 54.2212 11.884C54.2212 12.9987 54.5439 13.8787 55.1892 14.524C55.8345 15.1693 56.5825 15.492 57.4332 15.492C58.2985 15.492 59.0539 15.1767 59.6992 14.546ZM52.7032 16.416C51.6179 15.228 51.0752 13.7173 51.0752 11.884C51.0752 10.0507 51.6179 8.55467 52.7032 7.396C53.7885 6.22267 55.1672 5.636 56.8392 5.636C58.5112 5.636 59.7872 6.32533 60.6672 7.704V5.812H63.7472V18H60.6672V15.954C59.7432 17.4353 58.4599 18.176 56.8172 18.176C55.1745 18.176 53.8032 17.5893 52.7032 16.416ZM74.8027 14.546C75.4481 13.9007 75.7707 13.0207 75.7707 11.906C75.7707 10.7913 75.4481 9.91867 74.8027 9.288C74.1574 8.64267 73.4021 8.32 72.5367 8.32C71.6714 8.32 70.9161 8.63533 70.2707 9.266C69.6401 9.89667 69.3247 10.7693 69.3247 11.884C69.3247 12.9987 69.6474 13.8787 70.2927 14.524C70.9381 15.1693 71.6861 15.492 72.5367 15.492C73.4021 15.492 74.1574 15.1767 74.8027 14.546ZM67.8067 16.416C66.7214 15.228 66.1787 13.7173 66.1787 11.884C66.1787 10.0507 66.7214 8.55467 67.8067 7.396C68.8921 6.22267 70.2707 5.636 71.9427 5.636C73.6147 5.636 74.8907 6.32533 75.7707 7.704V1.72H78.8507V18H75.7707V15.954C74.8467 17.4353 73.5634 18.176 71.9207 18.176C70.2781 18.176 68.9067 17.5893 67.8067 16.416ZM88.7359 18V2.644H98.2399V5.02H91.8379V9.046H96.7219V11.422H91.8379V18H88.7359ZM104.113 2.71C104.113 3.238 103.93 3.68533 103.563 4.052C103.197 4.41867 102.749 4.602 102.221 4.602C101.708 4.602 101.268 4.41867 100.901 4.052C100.535 3.68533 100.351 3.238 100.351 2.71C100.351 2.182 100.535 1.73467 100.901 1.368C101.268 1.00133 101.708 0.818 102.221 0.818C102.749 0.818 103.197 1.00133 103.563 1.368C103.93 1.73467 104.113 2.182 104.113 2.71ZM100.681 18V5.812H103.783V18H100.681ZM107.084 18V1.72H110.186V18H107.084ZM118.634 18.176C116.859 18.176 115.415 17.604 114.3 16.46C113.185 15.3013 112.628 13.776 112.628 11.884C112.628 9.992 113.185 8.48133 114.3 7.352C115.429 6.208 116.881 5.636 118.656 5.636C120.445 5.636 121.912 6.19333 123.056 7.308C124.2 8.408 124.772 9.882 124.772 11.73C124.772 12.1553 124.743 12.5513 124.684 12.918H115.796C115.869 13.71 116.163 14.348 116.676 14.832C117.189 15.316 117.842 15.558 118.634 15.558C119.705 15.558 120.497 15.118 121.01 14.238H124.354C124.002 15.3967 123.32 16.3427 122.308 17.076C121.296 17.8093 120.071 18.176 118.634 18.176ZM121.56 10.916C121.516 10.1093 121.215 9.464 120.658 8.98C120.115 8.496 119.455 8.254 118.678 8.254C117.901 8.254 117.248 8.496 116.72 8.98C116.207 9.464 115.899 10.1093 115.796 10.916H121.56ZM126.532 9.376C126.532 8.32 126.98 7.43267 127.874 6.714C128.769 5.99533 129.957 5.636 131.438 5.636C132.92 5.636 134.108 5.99533 135.002 6.714C135.897 7.418 136.374 8.37867 136.432 9.596H133.264C133.176 8.56933 132.546 8.056 131.372 8.056C130.786 8.056 130.331 8.17333 130.008 8.408C129.686 8.64267 129.524 8.96533 129.524 9.376C129.524 9.78667 129.766 10.1093 130.25 10.344C130.734 10.5787 131.321 10.762 132.01 10.894C132.7 11.026 133.382 11.1947 134.056 11.4C134.746 11.5907 135.332 11.9427 135.816 12.456C136.3 12.9547 136.542 13.622 136.542 14.458C136.542 15.558 136.073 16.4527 135.134 17.142C134.21 17.8313 133.022 18.176 131.57 18.176C130.133 18.176 128.952 17.8387 128.028 17.164C127.104 16.4747 126.598 15.492 126.51 14.216H129.678C129.796 15.2427 130.448 15.756 131.636 15.756C132.208 15.756 132.67 15.6313 133.022 15.382C133.374 15.118 133.55 14.7807 133.55 14.37C133.55 13.9447 133.308 13.6147 132.824 13.38C132.34 13.1307 131.754 12.94 131.064 12.808C130.375 12.676 129.686 12.5147 128.996 12.324C128.322 12.1333 127.742 11.796 127.258 11.312C126.774 10.8133 126.532 10.168 126.532 9.376Z" fill="white"/>
</svg>
